<?xml version="1.0" encoding="UTF-8" standalone="no"?>
<!DOCTYPE svg PUBLIC "-//W3C//DTD SVG 1.1//EN"
 "http://www.w3.org/Graphics/SVG/1.1/DTD/svg11.dtd">
<!-- Generated by graphviz version 2.47.0 (20210316.0004)
 -->
<!-- Title: dependencies Pages: 1 -->
<svg width="1530pt" height="360pt"
 viewBox="0.00 0.00 1530.00 360.00" xmlns="http://www.w3.org/2000/svg" xmlns:xlink="http://www.w3.org/1999/xlink">
<g id="graph0" class="graph" transform="scale(1 1) rotate(0) translate(4 356)">
<title>dependencies</title>
<polygon fill="white" stroke="transparent" points="-4,4 -4,-356 1526,-356 1526,4 -4,4"/>
<text text-anchor="start" x="740.01" y="-42.4" font-family="sans-serif" font-weight="bold" font-size="14.00">Legend</text>
<polygon fill="#ffffb3" stroke="transparent" points="527,-10 527,-30 547,-30 547,-10 527,-10"/>
<text text-anchor="start" x="550.63" y="-15.4" font-family="sans-serif" font-size="14.00"> &#160;Declarations</text>
<polygon fill="#8dd3c7" stroke="transparent" points="640,-10 640,-30 660,-30 660,-10 640,-10"/>
<text text-anchor="start" x="663.73" y="-15.4" font-family="sans-serif" font-size="14.00"> &#160;Module</text>
<polygon fill="#80b1d3" stroke="transparent" points="726,-10 726,-30 746,-30 746,-10 726,-10"/>
<text text-anchor="start" x="749.78" y="-15.4" font-family="sans-serif" font-size="14.00"> &#160;Bootstrap</text>
<polygon fill="#fdb462" stroke="transparent" points="823,-10 823,-30 843,-30 843,-10 823,-10"/>
<text text-anchor="start" x="846.67" y="-15.4" font-family="sans-serif" font-size="14.00"> &#160;Providers</text>
<polygon fill="#fb8072" stroke="transparent" points="919,-10 919,-30 939,-30 939,-10 919,-10"/>
<text text-anchor="start" x="942.73" y="-15.4" font-family="sans-serif" font-size="14.00"> &#160;Exports</text>
<g id="clust1" class="cluster">
<title>cluster_AppModule</title>
<polygon fill="none" stroke="black" stroke-dasharray="1,5" points="545,-146 545,-344 1514,-344 1514,-146 545,-146"/>
</g>
<g id="clust2" class="cluster">
<title>cluster_AppModule_declarations</title>
<polygon fill="none" stroke="black" points="928,-154 928,-206 1506,-206 1506,-154 928,-154"/>
</g>
<g id="clust7" class="cluster">
<title>cluster_AppModule_imports</title>
<polygon fill="none" stroke="black" points="553,-154 553,-206 920,-206 920,-154 553,-154"/>
</g>
<g id="clust9" class="cluster">
<title>cluster_AppModule_bootstrap</title>
<polygon fill="none" stroke="black" points="956,-284 956,-336 1080,-336 1080,-284 956,-284"/>
</g>
<g id="clust17" class="cluster">
<title>cluster_AuthModule</title>
<polygon fill="none" stroke="black" stroke-dasharray="1,5" points="8,-70 8,-138 748,-138 748,-70 8,-70"/>
</g>
<g id="clust18" class="cluster">
<title>cluster_AuthModule_declarations</title>
<polygon fill="none" stroke="black" points="464,-78 464,-130 740,-130 740,-78 464,-78"/>
</g>
<g id="clust21" class="cluster">
<title>cluster_AuthModule_imports</title>
<polygon fill="none" stroke="black" points="308,-78 308,-130 456,-130 456,-78 308,-78"/>
</g>
<g id="clust22" class="cluster">
<title>cluster_AuthModule_exports</title>
<polygon fill="none" stroke="black" points="16,-78 16,-130 300,-130 300,-78 16,-78"/>
</g>
<g id="clust31" class="cluster">
<title>cluster_SharedModule</title>
<polygon fill="none" stroke="black" stroke-dasharray="1,5" points="756,-70 756,-138 1164,-138 1164,-70 756,-70"/>
</g>
<g id="clust32" class="cluster">
<title>cluster_SharedModule_declarations</title>
<polygon fill="none" stroke="black" points="896,-78 896,-130 1156,-130 1156,-78 896,-78"/>
</g>
<g id="clust36" class="cluster">
<title>cluster_SharedModule_exports</title>
<polygon fill="none" stroke="black" points="764,-78 764,-130 888,-130 888,-78 764,-78"/>
</g>
<!-- AppComponent -->
<g id="node1" class="node">
<title>AppComponent</title>
<polygon fill="#ffffb3" stroke="black" points="1497.94,-198 1392.06,-198 1392.06,-162 1497.94,-162 1497.94,-198"/>
<text text-anchor="middle" x="1445" y="-175.8" font-family="Times,serif" font-size="14.00">AppComponent</text>
</g>
<!-- AppModule -->
<g id="node5" class="node">
<title>AppModule</title>
<polygon fill="#8dd3c7" stroke="black" points="1059.66,-263 1056.66,-267 1035.66,-267 1032.66,-263 976.34,-263 976.34,-227 1059.66,-227 1059.66,-263"/>
<text text-anchor="middle" x="1018" y="-240.8" font-family="Times,serif" font-size="14.00">AppModule</text>
</g>
<!-- AppComponent&#45;&gt;AppModule -->
<g id="edge1" class="edge">
<title>AppComponent&#45;&gt;AppModule</title>
<path fill="none" stroke="black" d="M1445,-198.29C1445,-220.21 1445,-254 1445,-254 1445,-254 1069.72,-254 1069.72,-254"/>
<polygon fill="black" stroke="black" points="1069.72,-250.5 1059.72,-254 1069.72,-257.5 1069.72,-250.5"/>
</g>
<!-- HomeComponent -->
<g id="node2" class="node">
<title>HomeComponent</title>
<polygon fill="#ffffb3" stroke="black" points="1374.55,-198 1259.45,-198 1259.45,-162 1374.55,-162 1374.55,-198"/>
<text text-anchor="middle" x="1317" y="-175.8" font-family="Times,serif" font-size="14.00">HomeComponent</text>
</g>
<!-- HomeComponent&#45;&gt;AppModule -->
<g id="edge2" class="edge">
<title>HomeComponent&#45;&gt;AppModule</title>
<path fill="none" stroke="black" d="M1317,-198.11C1317,-217.34 1317,-245 1317,-245 1317,-245 1069.89,-245 1069.89,-245"/>
<polygon fill="black" stroke="black" points="1069.89,-241.5 1059.89,-245 1069.89,-248.5 1069.89,-241.5"/>
</g>
<!-- LibraryComponent -->
<g id="node3" class="node">
<title>LibraryComponent</title>
<polygon fill="#ffffb3" stroke="black" points="1241.81,-198 1118.19,-198 1118.19,-162 1241.81,-162 1241.81,-198"/>
<text text-anchor="middle" x="1180" y="-175.8" font-family="Times,serif" font-size="14.00">LibraryComponent</text>
</g>
<!-- LibraryComponent&#45;&gt;AppModule -->
<g id="edge3" class="edge">
<title>LibraryComponent&#45;&gt;AppModule</title>
<path fill="none" stroke="black" d="M1180,-198.03C1180,-214.4 1180,-236 1180,-236 1180,-236 1069.72,-236 1069.72,-236"/>
<polygon fill="black" stroke="black" points="1069.72,-232.5 1059.72,-236 1069.72,-239.5 1069.72,-232.5"/>
</g>
<!-- SearchingPageComponent -->
<g id="node4" class="node">
<title>SearchingPageComponent</title>
<polygon fill="#ffffb3" stroke="black" points="1100.02,-198 935.98,-198 935.98,-162 1100.02,-162 1100.02,-198"/>
<text text-anchor="middle" x="1018" y="-175.8" font-family="Times,serif" font-size="14.00">SearchingPageComponent</text>
</g>
<!-- SearchingPageComponent&#45;&gt;AppModule -->
<g id="edge4" class="edge">
<title>SearchingPageComponent&#45;&gt;AppModule</title>
<path fill="none" stroke="black" d="M1018,-198.11C1018,-198.11 1018,-216.99 1018,-216.99"/>
<polygon fill="black" stroke="black" points="1014.5,-216.99 1018,-226.99 1021.5,-216.99 1014.5,-216.99"/>
</g>
<!-- AppComponent  -->
<g id="node9" class="node">
<title>AppComponent </title>
<polygon fill="#80b1d3" stroke="black" points="1072.44,-328 963.56,-328 963.56,-292 1072.44,-292 1072.44,-328"/>
<text text-anchor="middle" x="1018" y="-305.8" font-family="Times,serif" font-size="14.00">AppComponent </text>
</g>
<!-- AppModule&#45;&gt;AppComponent  -->
<g id="edge8" class="edge">
<title>AppModule&#45;&gt;AppComponent </title>
<path fill="none" stroke="black" stroke-dasharray="1,5" d="M1018,-263.11C1018,-263.11 1018,-281.99 1018,-281.99"/>
<polygon fill="black" stroke="black" points="1014.5,-281.99 1018,-291.99 1021.5,-281.99 1014.5,-281.99"/>
</g>
<!-- AppRoutingModule -->
<g id="node6" class="node">
<title>AppRoutingModule</title>
<polygon fill="#8dd3c7" stroke="black" points="912.27,-198 909.27,-202 888.27,-202 885.27,-198 783.73,-198 783.73,-162 912.27,-162 912.27,-198"/>
<text text-anchor="middle" x="848" y="-175.8" font-family="Times,serif" font-size="14.00">AppRoutingModule</text>
</g>
<!-- AppRoutingModule&#45;&gt;AppModule -->
<g id="edge5" class="edge">
<title>AppRoutingModule&#45;&gt;AppModule</title>
<path fill="none" stroke="black" d="M848,-198.03C848,-214.4 848,-236 848,-236 848,-236 965.98,-236 965.98,-236"/>
<polygon fill="black" stroke="black" points="965.98,-239.5 975.98,-236 965.98,-232.5 965.98,-239.5"/>
</g>
<!-- AuthModule -->
<g id="node7" class="node">
<title>AuthModule</title>
<polygon fill="#8dd3c7" stroke="black" points="648.55,-198 645.55,-202 624.55,-202 621.55,-198 561.45,-198 561.45,-162 648.55,-162 648.55,-198"/>
<text text-anchor="middle" x="605" y="-175.8" font-family="Times,serif" font-size="14.00">AuthModule</text>
</g>
<!-- AuthModule&#45;&gt;AppModule -->
<g id="edge6" class="edge">
<title>AuthModule&#45;&gt;AppModule</title>
<path fill="none" stroke="black" d="M605,-198.29C605,-220.21 605,-254 605,-254 605,-254 966.13,-254 966.13,-254"/>
<polygon fill="black" stroke="black" points="966.13,-257.5 976.13,-254 966.13,-250.5 966.13,-257.5"/>
</g>
<!-- LoginComponent  -->
<g id="node13" class="node">
<title>LoginComponent </title>
<polygon fill="#fb8072" stroke="black" points="292.28,-122 173.72,-122 173.72,-86 292.28,-86 292.28,-122"/>
<text text-anchor="middle" x="233" y="-99.8" font-family="Times,serif" font-size="14.00">LoginComponent </text>
</g>
<!-- AuthModule&#45;&gt;LoginComponent  -->
<g id="edge12" class="edge">
<title>AuthModule&#45;&gt;LoginComponent </title>
<path fill="none" stroke="black" stroke-dasharray="5,2" d="M561.23,-180C462.9,-180 233,-180 233,-180 233,-180 233,-132.01 233,-132.01"/>
<polygon fill="black" stroke="black" points="236.5,-132.01 233,-122.01 229.5,-132.01 236.5,-132.01"/>
</g>
<!-- RegisterComponent  -->
<g id="node14" class="node">
<title>RegisterComponent </title>
<polygon fill="#fb8072" stroke="black" points="155.99,-122 24.01,-122 24.01,-86 155.99,-86 155.99,-122"/>
<text text-anchor="middle" x="90" y="-99.8" font-family="Times,serif" font-size="14.00">RegisterComponent </text>
</g>
<!-- AuthModule&#45;&gt;RegisterComponent  -->
<g id="edge13" class="edge">
<title>AuthModule&#45;&gt;RegisterComponent </title>
<path fill="none" stroke="black" stroke-dasharray="5,2" d="M561.09,-189C436.55,-189 90,-189 90,-189 90,-189 90,-132.03 90,-132.03"/>
<polygon fill="black" stroke="black" points="93.5,-132.03 90,-122.03 86.5,-132.03 93.5,-132.03"/>
</g>
<!-- SharedModule -->
<g id="node8" class="node">
<title>SharedModule</title>
<polygon fill="#8dd3c7" stroke="black" points="765.42,-198 762.42,-202 741.42,-202 738.42,-198 666.58,-198 666.58,-162 765.42,-162 765.42,-198"/>
<text text-anchor="middle" x="716" y="-175.8" font-family="Times,serif" font-size="14.00">SharedModule</text>
</g>
<!-- SharedModule&#45;&gt;AppModule -->
<g id="edge7" class="edge">
<title>SharedModule&#45;&gt;AppModule</title>
<path fill="none" stroke="black" d="M716,-198.11C716,-217.34 716,-245 716,-245 716,-245 966.33,-245 966.33,-245"/>
<polygon fill="black" stroke="black" points="966.33,-248.5 976.33,-245 966.33,-241.5 966.33,-248.5"/>
</g>
<!-- NavComponent  -->
<g id="node17" class="node">
<title>NavComponent </title>
<polygon fill="#fb8072" stroke="black" points="880.15,-122 771.85,-122 771.85,-86 880.15,-86 880.15,-122"/>
<text text-anchor="middle" x="826" y="-99.8" font-family="Times,serif" font-size="14.00">NavComponent </text>
</g>
<!-- SharedModule&#45;&gt;NavComponent  -->
<g id="edge16" class="edge">
<title>SharedModule&#45;&gt;NavComponent </title>
<path fill="none" stroke="black" stroke-dasharray="5,2" d="M765.27,-180C772.61,-180 777.77,-180 777.77,-180 777.77,-180 777.77,-132.01 777.77,-132.01"/>
<polygon fill="black" stroke="black" points="781.27,-132.01 777.77,-122.01 774.27,-132.01 781.27,-132.01"/>
</g>
<!-- LoginComponent -->
<g id="node10" class="node">
<title>LoginComponent</title>
<polygon fill="#ffffb3" stroke="black" points="732.28,-122 617.72,-122 617.72,-86 732.28,-86 732.28,-122"/>
<text text-anchor="middle" x="675" y="-99.8" font-family="Times,serif" font-size="14.00">LoginComponent</text>
</g>
<!-- LoginComponent&#45;&gt;AuthModule -->
<g id="edge9" class="edge">
<title>LoginComponent&#45;&gt;AuthModule</title>
<path fill="none" stroke="black" d="M633.19,-122.01C633.19,-122.01 633.19,-151.85 633.19,-151.85"/>
<polygon fill="black" stroke="black" points="629.69,-151.85 633.19,-161.85 636.69,-151.85 629.69,-151.85"/>
</g>
<!-- RegisterComponent -->
<g id="node11" class="node">
<title>RegisterComponent</title>
<polygon fill="#ffffb3" stroke="black" points="599.98,-122 472.02,-122 472.02,-86 599.98,-86 599.98,-122"/>
<text text-anchor="middle" x="536" y="-99.8" font-family="Times,serif" font-size="14.00">RegisterComponent</text>
</g>
<!-- RegisterComponent&#45;&gt;AuthModule -->
<g id="edge10" class="edge">
<title>RegisterComponent&#45;&gt;AuthModule</title>
<path fill="none" stroke="black" d="M580.61,-122.01C580.61,-122.01 580.61,-151.85 580.61,-151.85"/>
<polygon fill="black" stroke="black" points="577.11,-151.85 580.61,-161.85 584.11,-151.85 577.11,-151.85"/>
</g>
<!-- AuthRoutingModule -->
<g id="node12" class="node">
<title>AuthRoutingModule</title>
<polygon fill="#8dd3c7" stroke="black" points="448.17,-122 445.17,-126 424.17,-126 421.17,-122 315.83,-122 315.83,-86 448.17,-86 448.17,-122"/>
<text text-anchor="middle" x="382" y="-99.8" font-family="Times,serif" font-size="14.00">AuthRoutingModule</text>
</g>
<!-- AuthRoutingModule&#45;&gt;AuthModule -->
<g id="edge11" class="edge">
<title>AuthRoutingModule&#45;&gt;AuthModule</title>
<path fill="none" stroke="black" d="M382,-122.31C382,-142.15 382,-171 382,-171 382,-171 551.21,-171 551.21,-171"/>
<polygon fill="black" stroke="black" points="551.21,-174.5 561.21,-171 551.21,-167.5 551.21,-174.5"/>
</g>
<!-- HeaderComponent -->
<g id="node15" class="node">
<title>HeaderComponent</title>
<polygon fill="#ffffb3" stroke="black" points="1147.74,-122 1026.26,-122 1026.26,-86 1147.74,-86 1147.74,-122"/>
<text text-anchor="middle" x="1087" y="-99.8" font-family="Times,serif" font-size="14.00">HeaderComponent</text>
</g>
<!-- HeaderComponent&#45;&gt;SharedModule -->
<g id="edge14" class="edge">
<title>HeaderComponent&#45;&gt;SharedModule</title>
<path fill="none" stroke="black" d="M1063.19,-122.04C1063.19,-134.56 1063.19,-149 1063.19,-149 1063.19,-149 754.27,-149 754.27,-149 754.27,-149 754.27,-151.97 754.27,-151.97"/>
<polygon fill="black" stroke="black" points="750.77,-151.97 754.27,-161.97 757.77,-151.97 750.77,-151.97"/>
</g>
<!-- NavComponent -->
<g id="node16" class="node">
<title>NavComponent</title>
<polygon fill="#ffffb3" stroke="black" points="1008.15,-122 903.85,-122 903.85,-86 1008.15,-86 1008.15,-122"/>
<text text-anchor="middle" x="956" y="-99.8" font-family="Times,serif" font-size="14.00">NavComponent</text>
</g>
<!-- NavComponent&#45;&gt;SharedModule -->
<g id="edge15" class="edge">
<title>NavComponent&#45;&gt;SharedModule</title>
<path fill="none" stroke="black" d="M908.03,-122.24C908.03,-129.43 908.03,-136 908.03,-136 908.03,-136 743.33,-136 743.33,-136 743.33,-136 743.33,-151.85 743.33,-151.85"/>
<polygon fill="black" stroke="black" points="739.83,-151.85 743.33,-161.85 746.83,-151.85 739.83,-151.85"/>
</g>
</g>
</svg>
