<?xml version="1.0" encoding="UTF-8" standalone="no"?>
<!DOCTYPE svg PUBLIC "-//W3C//DTD SVG 1.1//EN"
 "http://www.w3.org/Graphics/SVG/1.1/DTD/svg11.dtd">
<!-- Generated by graphviz version 2.47.0 (20210316.0004)
 -->
<!-- Title: dependencies Pages: 1 -->
<svg width="504pt" height="284pt"
 viewBox="0.00 0.00 504.00 284.00" xmlns="http://www.w3.org/2000/svg" xmlns:xlink="http://www.w3.org/1999/xlink">
<g id="graph0" class="graph" transform="scale(1 1) rotate(0) translate(4 280)">
<title>dependencies</title>
<polygon fill="white" stroke="transparent" points="-4,4 -4,-280 500,-280 500,4 -4,4"/>
<text text-anchor="start" x="227.01" y="-42.4" font-family="sans-serif" font-weight="bold" font-size="14.00">Legend</text>
<polygon fill="#ffffb3" stroke="transparent" points="14,-10 14,-30 34,-30 34,-10 14,-10"/>
<text text-anchor="start" x="37.63" y="-15.4" font-family="sans-serif" font-size="14.00"> &#160;Declarations</text>
<polygon fill="#8dd3c7" stroke="transparent" points="127,-10 127,-30 147,-30 147,-10 127,-10"/>
<text text-anchor="start" x="150.73" y="-15.4" font-family="sans-serif" font-size="14.00"> &#160;Module</text>
<polygon fill="#80b1d3" stroke="transparent" points="213,-10 213,-30 233,-30 233,-10 213,-10"/>
<text text-anchor="start" x="236.78" y="-15.4" font-family="sans-serif" font-size="14.00"> &#160;Bootstrap</text>
<polygon fill="#fdb462" stroke="transparent" points="310,-10 310,-30 330,-30 330,-10 310,-10"/>
<text text-anchor="start" x="333.67" y="-15.4" font-family="sans-serif" font-size="14.00"> &#160;Providers</text>
<polygon fill="#fb8072" stroke="transparent" points="406,-10 406,-30 426,-30 426,-10 406,-10"/>
<text text-anchor="start" x="429.73" y="-15.4" font-family="sans-serif" font-size="14.00"> &#160;Exports</text>
<g id="clust1" class="cluster">
<title>cluster_AuthModule</title>
<polygon fill="none" stroke="black" stroke-dasharray="1,5" points="24,-70 24,-268 472,-268 472,-70 24,-70"/>
</g>
<g id="clust6" class="cluster">
<title>cluster_AuthModule_exports</title>
<polygon fill="none" stroke="black" points="101,-208 101,-260 385,-260 385,-208 101,-208"/>
</g>
<g id="clust5" class="cluster">
<title>cluster_AuthModule_imports</title>
<polygon fill="none" stroke="black" points="316,-78 316,-130 464,-130 464,-78 316,-78"/>
</g>
<g id="clust2" class="cluster">
<title>cluster_AuthModule_declarations</title>
<polygon fill="none" stroke="black" points="32,-78 32,-130 308,-130 308,-78 32,-78"/>
</g>
<!-- LoginComponent -->
<g id="node1" class="node">
<title>LoginComponent</title>
<polygon fill="#ffffb3" stroke="black" points="300.28,-122 185.72,-122 185.72,-86 300.28,-86 300.28,-122"/>
<text text-anchor="middle" x="243" y="-99.8" font-family="Times,serif" font-size="14.00">LoginComponent</text>
</g>
<!-- AuthModule -->
<g id="node3" class="node">
<title>AuthModule</title>
<polygon fill="#8dd3c7" stroke="black" points="286.55,-187 283.55,-191 262.55,-191 259.55,-187 199.45,-187 199.45,-151 286.55,-151 286.55,-187"/>
<text text-anchor="middle" x="243" y="-164.8" font-family="Times,serif" font-size="14.00">AuthModule</text>
</g>
<!-- LoginComponent&#45;&gt;AuthModule -->
<g id="edge1" class="edge">
<title>LoginComponent&#45;&gt;AuthModule</title>
<path fill="none" stroke="black" d="M243,-122.11C243,-122.11 243,-140.99 243,-140.99"/>
<polygon fill="black" stroke="black" points="239.5,-140.99 243,-150.99 246.5,-140.99 239.5,-140.99"/>
</g>
<!-- RegisterComponent -->
<g id="node2" class="node">
<title>RegisterComponent</title>
<polygon fill="#ffffb3" stroke="black" points="167.98,-122 40.02,-122 40.02,-86 167.98,-86 167.98,-122"/>
<text text-anchor="middle" x="104" y="-99.8" font-family="Times,serif" font-size="14.00">RegisterComponent</text>
</g>
<!-- RegisterComponent&#45;&gt;AuthModule -->
<g id="edge2" class="edge">
<title>RegisterComponent&#45;&gt;AuthModule</title>
<path fill="none" stroke="black" d="M138.62,-122.11C138.62,-141.34 138.62,-169 138.62,-169 138.62,-169 189.34,-169 189.34,-169"/>
<polygon fill="black" stroke="black" points="189.34,-172.5 199.34,-169 189.34,-165.5 189.34,-172.5"/>
</g>
<!-- LoginComponent  -->
<g id="node5" class="node">
<title>LoginComponent </title>
<polygon fill="#fb8072" stroke="black" points="377.28,-252 258.72,-252 258.72,-216 377.28,-216 377.28,-252"/>
<text text-anchor="middle" x="318" y="-229.8" font-family="Times,serif" font-size="14.00">LoginComponent </text>
</g>
<!-- AuthModule&#45;&gt;LoginComponent  -->
<g id="edge4" class="edge">
<title>AuthModule&#45;&gt;LoginComponent </title>
<path fill="none" stroke="black" stroke-dasharray="5,2" d="M272.82,-187.11C272.82,-187.11 272.82,-205.99 272.82,-205.99"/>
<polygon fill="black" stroke="black" points="269.32,-205.99 272.82,-215.99 276.32,-205.99 269.32,-205.99"/>
</g>
<!-- RegisterComponent  -->
<g id="node6" class="node">
<title>RegisterComponent </title>
<polygon fill="#fb8072" stroke="black" points="240.99,-252 109.01,-252 109.01,-216 240.99,-216 240.99,-252"/>
<text text-anchor="middle" x="175" y="-229.8" font-family="Times,serif" font-size="14.00">RegisterComponent </text>
</g>
<!-- AuthModule&#45;&gt;RegisterComponent  -->
<g id="edge5" class="edge">
<title>AuthModule&#45;&gt;RegisterComponent </title>
<path fill="none" stroke="black" stroke-dasharray="5,2" d="M219.98,-187.11C219.98,-187.11 219.98,-205.99 219.98,-205.99"/>
<polygon fill="black" stroke="black" points="216.48,-205.99 219.98,-215.99 223.48,-205.99 216.48,-205.99"/>
</g>
<!-- AuthRoutingModule -->
<g id="node4" class="node">
<title>AuthRoutingModule</title>
<polygon fill="#8dd3c7" stroke="black" points="456.17,-122 453.17,-126 432.17,-126 429.17,-122 323.83,-122 323.83,-86 456.17,-86 456.17,-122"/>
<text text-anchor="middle" x="390" y="-99.8" font-family="Times,serif" font-size="14.00">AuthRoutingModule</text>
</g>
<!-- AuthRoutingModule&#45;&gt;AuthModule -->
<g id="edge3" class="edge">
<title>AuthRoutingModule&#45;&gt;AuthModule</title>
<path fill="none" stroke="black" d="M350.4,-122.11C350.4,-141.34 350.4,-169 350.4,-169 350.4,-169 296.68,-169 296.68,-169"/>
<polygon fill="black" stroke="black" points="296.68,-165.5 286.68,-169 296.68,-172.5 296.68,-165.5"/>
</g>
</g>
</svg>
