<?xml version="1.0" encoding="UTF-8" standalone="no"?>
<!DOCTYPE svg PUBLIC "-//W3C//DTD SVG 1.1//EN"
 "http://www.w3.org/Graphics/SVG/1.1/DTD/svg11.dtd">
<!-- Generated by graphviz version 2.47.0 (20210316.0004)
 -->
<!-- Title: dependencies Pages: 1 -->
<svg width="992pt" height="284pt"
 viewBox="0.00 0.00 992.00 284.00" xmlns="http://www.w3.org/2000/svg" xmlns:xlink="http://www.w3.org/1999/xlink">
<g id="graph0" class="graph" transform="scale(1 1) rotate(0) translate(4 280)">
<title>dependencies</title>
<polygon fill="white" stroke="transparent" points="-4,4 -4,-280 988,-280 988,4 -4,4"/>
<text text-anchor="start" x="471.01" y="-42.4" font-family="sans-serif" font-weight="bold" font-size="14.00">Legend</text>
<polygon fill="#ffffb3" stroke="transparent" points="258,-10 258,-30 278,-30 278,-10 258,-10"/>
<text text-anchor="start" x="281.63" y="-15.4" font-family="sans-serif" font-size="14.00"> &#160;Declarations</text>
<polygon fill="#8dd3c7" stroke="transparent" points="371,-10 371,-30 391,-30 391,-10 371,-10"/>
<text text-anchor="start" x="394.73" y="-15.4" font-family="sans-serif" font-size="14.00"> &#160;Module</text>
<polygon fill="#80b1d3" stroke="transparent" points="457,-10 457,-30 477,-30 477,-10 457,-10"/>
<text text-anchor="start" x="480.78" y="-15.4" font-family="sans-serif" font-size="14.00"> &#160;Bootstrap</text>
<polygon fill="#fdb462" stroke="transparent" points="554,-10 554,-30 574,-30 574,-10 554,-10"/>
<text text-anchor="start" x="577.67" y="-15.4" font-family="sans-serif" font-size="14.00"> &#160;Providers</text>
<polygon fill="#fb8072" stroke="transparent" points="650,-10 650,-30 670,-30 670,-10 650,-10"/>
<text text-anchor="start" x="673.73" y="-15.4" font-family="sans-serif" font-size="14.00"> &#160;Exports</text>
<g id="clust1" class="cluster">
<title>cluster_AppModule</title>
<polygon fill="none" stroke="black" stroke-dasharray="1,5" points="8,-70 8,-268 976,-268 976,-70 8,-70"/>
</g>
<g id="clust7" class="cluster">
<title>cluster_AppModule_imports</title>
<polygon fill="none" stroke="black" points="602,-78 602,-130 968,-130 968,-78 602,-78"/>
</g>
<g id="clust2" class="cluster">
<title>cluster_AppModule_declarations</title>
<polygon fill="none" stroke="black" points="16,-78 16,-130 594,-130 594,-78 16,-78"/>
</g>
<g id="clust9" class="cluster">
<title>cluster_AppModule_bootstrap</title>
<polygon fill="none" stroke="black" points="471,-208 471,-260 595,-260 595,-208 471,-208"/>
</g>
<!-- AppComponent -->
<g id="node1" class="node">
<title>AppComponent</title>
<polygon fill="#ffffb3" stroke="black" points="585.94,-122 480.06,-122 480.06,-86 585.94,-86 585.94,-122"/>
<text text-anchor="middle" x="533" y="-99.8" font-family="Times,serif" font-size="14.00">AppComponent</text>
</g>
<!-- AppModule -->
<g id="node5" class="node">
<title>AppModule</title>
<polygon fill="#8dd3c7" stroke="black" points="574.66,-187 571.66,-191 550.66,-191 547.66,-187 491.34,-187 491.34,-151 574.66,-151 574.66,-187"/>
<text text-anchor="middle" x="533" y="-164.8" font-family="Times,serif" font-size="14.00">AppModule</text>
</g>
<!-- AppComponent&#45;&gt;AppModule -->
<g id="edge1" class="edge">
<title>AppComponent&#45;&gt;AppModule</title>
<path fill="none" stroke="black" d="M533,-122.11C533,-122.11 533,-140.99 533,-140.99"/>
<polygon fill="black" stroke="black" points="529.5,-140.99 533,-150.99 536.5,-140.99 529.5,-140.99"/>
</g>
<!-- HomeComponent -->
<g id="node2" class="node">
<title>HomeComponent</title>
<polygon fill="#ffffb3" stroke="black" points="462.55,-122 347.45,-122 347.45,-86 462.55,-86 462.55,-122"/>
<text text-anchor="middle" x="405" y="-99.8" font-family="Times,serif" font-size="14.00">HomeComponent</text>
</g>
<!-- HomeComponent&#45;&gt;AppModule -->
<g id="edge2" class="edge">
<title>HomeComponent&#45;&gt;AppModule</title>
<path fill="none" stroke="black" d="M405,-122.03C405,-138.4 405,-160 405,-160 405,-160 481.09,-160 481.09,-160"/>
<polygon fill="black" stroke="black" points="481.09,-163.5 491.09,-160 481.09,-156.5 481.09,-163.5"/>
</g>
<!-- LibraryComponent -->
<g id="node3" class="node">
<title>LibraryComponent</title>
<polygon fill="#ffffb3" stroke="black" points="329.81,-122 206.19,-122 206.19,-86 329.81,-86 329.81,-122"/>
<text text-anchor="middle" x="268" y="-99.8" font-family="Times,serif" font-size="14.00">LibraryComponent</text>
</g>
<!-- LibraryComponent&#45;&gt;AppModule -->
<g id="edge3" class="edge">
<title>LibraryComponent&#45;&gt;AppModule</title>
<path fill="none" stroke="black" d="M268,-122.11C268,-141.34 268,-169 268,-169 268,-169 481.3,-169 481.3,-169"/>
<polygon fill="black" stroke="black" points="481.3,-172.5 491.3,-169 481.3,-165.5 481.3,-172.5"/>
</g>
<!-- SearchingPageComponent -->
<g id="node4" class="node">
<title>SearchingPageComponent</title>
<polygon fill="#ffffb3" stroke="black" points="188.02,-122 23.98,-122 23.98,-86 188.02,-86 188.02,-122"/>
<text text-anchor="middle" x="106" y="-99.8" font-family="Times,serif" font-size="14.00">SearchingPageComponent</text>
</g>
<!-- SearchingPageComponent&#45;&gt;AppModule -->
<g id="edge4" class="edge">
<title>SearchingPageComponent&#45;&gt;AppModule</title>
<path fill="none" stroke="black" d="M106,-122.29C106,-144.21 106,-178 106,-178 106,-178 481.28,-178 481.28,-178"/>
<polygon fill="black" stroke="black" points="481.28,-181.5 491.28,-178 481.28,-174.5 481.28,-181.5"/>
</g>
<!-- AppComponent  -->
<g id="node9" class="node">
<title>AppComponent </title>
<polygon fill="#80b1d3" stroke="black" points="587.44,-252 478.56,-252 478.56,-216 587.44,-216 587.44,-252"/>
<text text-anchor="middle" x="533" y="-229.8" font-family="Times,serif" font-size="14.00">AppComponent </text>
</g>
<!-- AppModule&#45;&gt;AppComponent  -->
<g id="edge8" class="edge">
<title>AppModule&#45;&gt;AppComponent </title>
<path fill="none" stroke="black" stroke-dasharray="1,5" d="M533,-187.11C533,-187.11 533,-205.99 533,-205.99"/>
<polygon fill="black" stroke="black" points="529.5,-205.99 533,-215.99 536.5,-205.99 529.5,-205.99"/>
</g>
<!-- AppRoutingModule -->
<g id="node6" class="node">
<title>AppRoutingModule</title>
<polygon fill="#8dd3c7" stroke="black" points="960.27,-122 957.27,-126 936.27,-126 933.27,-122 831.73,-122 831.73,-86 960.27,-86 960.27,-122"/>
<text text-anchor="middle" x="896" y="-99.8" font-family="Times,serif" font-size="14.00">AppRoutingModule</text>
</g>
<!-- AppRoutingModule&#45;&gt;AppModule -->
<g id="edge5" class="edge">
<title>AppRoutingModule&#45;&gt;AppModule</title>
<path fill="none" stroke="black" d="M896,-122.29C896,-144.21 896,-178 896,-178 896,-178 585,-178 585,-178"/>
<polygon fill="black" stroke="black" points="585,-174.5 575,-178 585,-181.5 585,-174.5"/>
</g>
<!-- AuthModule -->
<g id="node7" class="node">
<title>AuthModule</title>
<polygon fill="#8dd3c7" stroke="black" points="813.55,-122 810.55,-126 789.55,-126 786.55,-122 726.45,-122 726.45,-86 813.55,-86 813.55,-122"/>
<text text-anchor="middle" x="770" y="-99.8" font-family="Times,serif" font-size="14.00">AuthModule</text>
</g>
<!-- AuthModule&#45;&gt;AppModule -->
<g id="edge6" class="edge">
<title>AuthModule&#45;&gt;AppModule</title>
<path fill="none" stroke="black" d="M770,-122.11C770,-141.34 770,-169 770,-169 770,-169 584.83,-169 584.83,-169"/>
<polygon fill="black" stroke="black" points="584.83,-165.5 574.83,-169 584.83,-172.5 584.83,-165.5"/>
</g>
<!-- SharedModule -->
<g id="node8" class="node">
<title>SharedModule</title>
<polygon fill="#8dd3c7" stroke="black" points="708.42,-122 705.42,-126 684.42,-126 681.42,-122 609.58,-122 609.58,-86 708.42,-86 708.42,-122"/>
<text text-anchor="middle" x="659" y="-99.8" font-family="Times,serif" font-size="14.00">SharedModule</text>
</g>
<!-- SharedModule&#45;&gt;AppModule -->
<g id="edge7" class="edge">
<title>SharedModule&#45;&gt;AppModule</title>
<path fill="none" stroke="black" d="M659,-122.03C659,-138.4 659,-160 659,-160 659,-160 584.96,-160 584.96,-160"/>
<polygon fill="black" stroke="black" points="584.96,-156.5 574.96,-160 584.96,-163.5 584.96,-156.5"/>
</g>
</g>
</svg>
